<svg class="icon icon--logo header-content__logo-icon" xmlns="http://www.w3.org/2000/svg" viewBox="0 0 180.924 30.754">
<path d="m62.301 15.213-.276-.121a10.078 10.078 0 0 1-2.257-1.085 1.389 1.389 0 0 1-.775-1.257c0-.93.775-1.413 2.326-1.413a8.8 8.8 0 0 1 3.964.934l.241.1V8.804l-.122-.053a12 12 0 0 0-4.273-.791c-3.945 0-6.2 1.9-6.2 5.186 0 2.48 1.12 3.911 4.015 5.082 3.064 1.276 3.357 1.603 3.357 2.533 0 1.086-.918 1.637-2.718 1.637a9.3 9.3 0 0 1-4.5-1.173l-.259-.121v3.584l.1.053a11.118 11.118 0 0 0 4.93 1.051c4.307 0 6.685-1.9 6.685-5.323.018-2.6-1.067-3.929-4.238-5.256m18.453 6.375a10.585 10.585 0 0 1-4.07.809c-2.84 0-3.96-1.516-3.96-5.427 0-4.083 1.085-5.6 3.98-5.6a10.18 10.18 0 0 1 3.929.793l.241.1V8.735l-.12-.052a11.87 11.87 0 0 0-4.187-.706 8.731 8.731 0 0 0-5.841 1.928c-1.809 1.586-2.653 3.827-2.653 7.083 0 2.756.568 4.737 1.809 6.2a8.256 8.256 0 0 0 6.548 2.586 10.613 10.613 0 0 0 4.428-.93l.1-.051v-3.309ZM93.986 8.373v6.615h-6.1V8.373h-4.41v17.074h4.41V18.4h6.083v7.047h4.41V8.373Zm12.076 13.611V18.4h5.859v-3.305h-5.859v-3.277h7.427V8.355h-11.838V25.43h12.181l.311-3.463c.017.017-7.736.017-8.081.017m21.261-13.611v9.338c-.586-.758-7.097-9.338-7.097-9.338h-3.688v17.074h3.739v-10.32c.585.775 7.856 10.32 7.856 10.32h2.929V8.373Zm15.179 8.046c.172-.209 6.444-8.046 6.444-8.046h-4.588s-5.043 6.548-5.611 7.288V8.373h-4.395v17.074h4.395v-7.219l5.53 7.218h5.237s-6.84-8.82-7.012-9.027m12.991 5.565V18.4h5.875v-3.305h-5.875v-3.277h7.427V8.355h-11.838V25.43h12.181l.311-3.463c.017.017-7.736.017-8.081.017m14.886-10.32h2.015c1.705 0 2.257.482 2.257 1.981s-.62 2.05-2.257 2.05h-2.015Zm6.84 7.633a4.661 4.661 0 0 0-1.533-1.621c2.24-.724 3.238-2 3.238-4.254 0-3.4-2.1-5.049-6.409-5.049h-6.547v17.074h4.411v-6.736h.552c1 0 1.343.259 2.118 1.568l3.068 5.168h4.806Z"></path>
<g fill="#ec0016">
<path d="M40.73 26.326a1.21 1.21 0 0 1-1.206 1.257H4.416a1.22 1.22 0 0 1-1.206-1.257V4.377a1.211 1.211 0 0 1 1.206-1.259h35.108a1.212 1.212 0 0 1 1.206 1.259ZM39.524 0H4.416A4.379 4.379 0 0 0 .005 4.377v21.949a4.423 4.423 0 0 0 4.411 4.428h35.108a4.423 4.423 0 0 0 4.411-4.428V4.377A4.379 4.379 0 0 0 39.524 0"></path>
<path d="M16.644 15.709c0-4.049-.413-7.218-4.79-7.218h-.984v13.7h1.724c2.551 0 4.049-2.05 4.049-6.478m-3.221 9.735H6.03V5.309h7.392c5.2 0 8.081 3.256 8.081 9.976.016 5.824-1.933 10.111-8.081 10.163m16.988-3.257h-1.986v-5.168h2.123c2.516 0 3.119 1.464 3.119 2.589 0 2.584-2.5 2.584-3.256 2.584M28.424 8.425h1.52c2.171 0 3.033.758 3.033 2.429a2.412 2.412 0 0 1-2.637 2.43h-1.916Zm5.862 6.495a4.936 4.936 0 0 0 3.516-4.686c0-.413-.086-4.91-5.755-4.91h-8.423v20.124h7.113c1.878 0 7.754 0 7.754-5.669.017-1.413-.552-4.066-4.2-4.859"></path>
</g>
</svg>